<?xml version="1.0" encoding="UTF-8" standalone="no"?>
<svg width="604px" height="279px" viewBox="0 0 604 279" version="1.1" xmlns="http://www.w3.org/2000/svg" xmlns:xlink="http://www.w3.org/1999/xlink" xmlns:sketch="http://www.bohemiancoding.com/sketch/ns">
    <title>Slice 1</title>
    <description>Created with Sketch (http://www.bohemiancoding.com/sketch)</description>
    <defs></defs>
    <g id="Page-1" stroke="none" stroke-width="1" fill="none" fill-rule="evenodd" sketch:type="MSPage">
        <path d="M498.414957,149.158287 C498.079518,149.691203 497.719866,150.27044 497.336,150.896 C494.743987,155.120021 491.672018,160.111971 488.12,165.872 C484.567982,171.632029 481.448013,176.287982 478.76,179.84 C476.071987,183.392018 471.800029,187.567976 465.944,192.368 C460.087971,197.168024 455.048021,199.568 450.824,199.568 C446.599979,199.568 444.488,196.688029 444.488,190.928 C444.295999,186.89598 445.255989,180.080048 447.368,170.48 C449.480011,160.879952 451.687988,152.720034 453.992,146 L458.6,132.752 C469.928057,121.999946 482.695929,107.744089 496.904,89.984 C511.112071,72.2239112 521.671965,56.3360701 528.584,42.32 C533.000022,34.2559597 535.208,26.3840384 535.208,18.704 C535.208,8.71995008 529.736055,3.728 518.792,3.728 C507.847945,3.728 497.672047,9.29594432 488.264,20.432 C483.463976,26.0000278 479.09602,31.4719731 475.16,36.848 C471.22398,42.2240269 467.144021,49.4239549 462.92,58.448 C458.695979,67.4720451 455.336012,74.7199726 452.84,80.192 C450.343988,85.6640274 447.368017,93.295951 443.912,103.088 C440.455983,112.880049 438.248005,119.311985 437.288,122.384 C424.423936,158.28818 417.992,183.439928 417.992,197.84 C417.992,212.432073 423.367946,219.728 434.12,219.728 C448.13607,219.728 461.767934,212.432073 475.016,197.84 C480.950434,191.207397 488.550807,180.2115 497.817311,164.852025 C500.197172,161.718283 507.284688,148.522362 519.08,125.264 C521.384012,126.224005 523.591989,126.704 525.704,126.704 C532.424034,126.704 539.143966,124.016027 545.864,118.64 C537.607959,131.504064 531.368021,144.847931 527.144,158.672 C522.919979,172.496069 520.808,184.879945 520.808,195.824 C520.808,211.952081 526.279945,220.016 537.224,220.016 C543.368031,220.016 550.231962,216.99203 557.816,210.944 C565.400038,204.89597 571.879973,198.224036 577.256,190.928 C582.632027,183.631964 589.447959,173.168068 597.704,159.536 C599.62401,156.271984 600.584,152.864018 600.584,149.312 C600.584,145.759982 599.912007,143.984 598.568,143.984 C598.183998,143.984 596.696013,146.143978 594.104,150.464 C591.511987,154.784022 588.440018,159.871971 584.888,165.728 C581.335982,171.584029 578.072015,176.383981 575.096,180.128 C572.119985,183.872019 568.376023,187.423983 563.864,190.784 C559.351977,194.144017 555.848012,195.919999 553.352,196.112 C549.511981,196.112 547.592,193.328028 547.592,187.76 C547.592,182.191972 549.175984,174.944045 552.344,166.016 C555.512016,157.087955 558.391987,149.984026 560.984,144.704 C563.576013,139.423974 567.511974,131.600052 572.792,121.232 C578.072026,110.863948 582.151986,104.624011 585.032,102.512 L582.152,102.512 L567.464,102.224 C560.551965,102.224 553.736034,107.023952 547.016,116.624 C546.247996,116.816001 545.096008,116.912 543.56,116.912 C538.183973,116.912 533.624019,115.424015 529.88,112.448 C526.135981,109.471985 524.264,105.392026 524.264,100.208 C524.264,97.9039885 524.455998,96.1760058 524.84,95.024 C522.151987,92.3359866 518.696021,90.992 514.472,90.992 C510.247979,90.992 506.936012,92.5279846 504.536,95.6 C502.135988,98.6720154 500.936,102.127981 500.936,105.968 C500.936,113.648038 504.391965,119.215983 511.304,122.672 C511.111999,123.248003 509.624014,126.127974 506.84,131.312 C504.055986,136.496026 501.464012,141.919972 499.064,147.584 C498.836908,148.119937 498.62056,148.644699 498.414957,149.158287 Z M305.09002,178.202154 C302.258135,182.4925 299.548134,186.398441 296.96,189.92 C291.103971,197.88804 284.432037,204.84797 276.944,210.8 C269.455963,216.75203 262.640031,219.728 256.496,219.728 C245.167943,219.728 239.504,213.488062 239.504,201.008 C239.504,188.527938 246.703928,163.472188 261.104,125.84 C261.872004,124.111991 262.256,122.28801 262.256,120.368 C262.256,116.33598 259.712025,114.32 254.624,114.32 C249.535975,114.32 244.544024,115.903984 239.648,119.072 C234.751976,122.240016 230.28802,126.751971 226.256,132.608 C222.22398,138.464029 218.576016,144.41597 215.312,150.464 C212.047984,156.51203 209.024014,163.471961 206.24,171.344 C203.455986,179.216039 201.248008,185.791974 199.616,191.072 C197.983992,196.352026 196.352008,202.01597 194.72,208.064 C193.087992,214.11203 192.176001,217.423997 191.984,218 L164.048,218 C164.048,215.308199 167.813217,204.101902 175.343725,184.380901 C173.996342,186.322333 172.679101,188.168698 171.392,189.92 C165.535971,197.88804 158.864037,204.84797 151.376,210.8 C143.887963,216.75203 137.072031,219.728 130.928,219.728 C120.175946,219.728 114.8,212.240075 114.8,197.264 C114.8,174.031884 122.76792,148.304141 138.704,120.08 C145.424034,108.559942 152.911959,102.8 161.168,102.8 L175.568,103.088 L178.448,103.088 C175.375985,105.392012 171.296025,111.631949 166.208,121.808 C161.119975,131.984051 157.328012,139.663974 154.832,144.848 C152.335988,150.032026 149.504016,157.039956 146.336,165.872 C143.167984,174.704044 141.584,181.903972 141.584,187.472 C141.584,193.040028 143.407982,195.824 147.056,195.824 C149.552012,195.824 153.055977,194.144017 157.568,190.784 C162.080023,187.423983 165.775986,183.872019 168.656,180.128 C171.536014,176.383981 174.751982,171.632029 178.304,165.872 C181.856018,160.111971 184.927987,155.120021 187.52,150.896 C188.45472,149.372753 189.245868,148.124163 189.893447,147.150227 L189.893447,147.150227 C196.471181,128.142597 199.76,114.799316 199.76,107.12 C199.76,105.19999 199.472003,103.760005 198.896,102.8 L210.992,102.8 C217.712034,102.8 222.03199,103.471993 223.952,104.816 C225.87201,106.160007 226.832,107.983988 226.832,110.288 C226.832,112.592012 225.776011,117.295964 223.664,124.4 C239.792081,109.039923 256.015918,101.36 272.336,101.36 C283.280055,101.36 288.752,106.35195 288.752,116.336 C288.752,119.600016 288.272005,122.863984 287.312,126.128 C286.351995,129.392016 283.952019,135.919951 280.112,145.712 C271.663958,167.216108 267.44,181.615964 267.44,188.912 C267.44,193.520023 269.167983,195.824 272.624,195.824 C275.120012,195.824 278.623977,194.096017 283.136,190.64 C287.648023,187.183983 291.391985,183.584019 294.368,179.84 C297.344015,176.095981 300.607982,171.392028 304.16,165.728 C307.503798,160.395997 310.379643,155.702125 312.787608,151.646258 C316.441381,141.307471 320.381489,132.801439 324.608,126.128 C330.080027,117.487957 335.743971,111.920012 341.6,109.424 C347.456029,106.927988 355.471949,105.68 365.648,105.68 C366.416004,105.68 366.8,106.063996 366.8,106.832 C366.8,107.600004 366.224006,108.559994 365.072,109.712 C357.199961,116.624035 349.184041,129.007911 341.024,146.864 C332.863959,164.720089 328.784,179.791939 328.784,192.08 C328.784,198.608033 330.607982,201.872 334.256,201.872 C341.168035,201.872 349.999946,194.960069 360.752,181.136 C371.504054,167.311931 379.759971,153.488069 385.52,139.664 C386.288004,137.74399 387.391993,134.960018 388.832,131.312 C390.272007,127.663982 391.279997,125.168007 391.856,123.824 C392.432003,122.479993 393.343994,120.608012 394.592,118.208 C395.840006,115.807988 396.943995,114.176004 397.904,113.312 C398.864005,112.447996 400.159992,111.344007 401.792,110 C403.424008,108.655993 405.103991,107.792002 406.832,107.408 C412.400028,106.255994 417.583976,105.68 422.384,105.68 L434.192,105.68 C428.23997,109.328018 422.192031,118.351928 416.048,132.752 C411.055975,144.84806 406.832017,155.839951 403.376,165.728 C399.919983,175.616049 397.808004,181.615989 397.04,183.728 C396.271996,185.840011 394.496014,190.975959 391.712,199.136 C388.927986,207.296041 386.672009,213.583978 384.944,218 C380.143976,231.440067 374.576032,242.095961 368.24,249.968 C361.903968,257.840039 354.032047,264.127976 344.624,268.832 C335.215953,273.536024 325.712048,275.888 316.112,275.888 C306.511952,275.888 298.304034,274.016019 291.488,270.272 C284.671966,266.527981 281.264,260.62404 281.264,252.56 C281.264,248.335979 282.559987,244.544017 285.152,241.184 C287.744013,237.823983 290.719983,236.144 294.08,236.144 C297.440017,236.144 300.271988,236.911992 302.576,238.448 C304.880012,239.984008 306.511995,241.71199 307.472,243.632 C304.015983,244.784006 302.288,248.815965 302.288,255.728 C302.288,259.376018 303.583987,262.303989 306.176,264.512 C308.768013,266.720011 312.07998,267.824 316.112,267.824 C331.664078,267.824 344.719947,253.904139 355.28,226.064 L371.696,182.288 C362.671955,193.616057 354.848033,202.111972 348.224,207.776 C341.599967,213.440028 336.416019,216.847994 332.672,218 C328.927981,219.152006 324.512025,219.728 319.424,219.728 C314.335975,219.728 310.256015,217.664021 307.184,213.536 C304.111985,209.407979 302.624,203.36004 302.72,195.392 C302.775375,190.795916 303.565377,185.065989 305.09002,178.202154 L305.09002,178.202154 Z M159.04,16.976 L184.96,16.976 C178.623968,27.3440518 160.288152,55.7597677 129.952,102.224 C99.6158483,148.688232 82.3360211,175.231967 78.112,181.856 C73.8879789,188.480033 70.8160096,193.279985 68.896,196.256 C66.9759904,199.232015 65.5840043,201.439993 64.72,202.88 C63.8559957,204.320007 62.5120091,206.191988 60.688,208.496 C58.8639909,210.800012 57.2800067,212.527994 55.936,213.68 C52.2879818,216.560014 48.4480202,218 44.416,218 L25.984,218 C29.0560154,212.04797 30.8799971,205.280038 31.456,197.696 C32.0320029,190.111962 32.4639986,182.096042 32.752,173.648 C33.0400014,165.199958 33.4239976,156.032049 33.904,146.144 C34.3840024,136.255951 34.624,126.128052 34.624,115.76 C34.624,64.8797456 28.8640576,39.44 17.344,39.44 C13.3119798,39.44 9.18402112,42.7999664 4.96,49.52 L4.672,49.808 C3.90399616,49.808 3.52,49.2320058 3.52,48.08 L3.52,47.792 C5.82401152,40.6879645 11.1519582,33.1520398 19.504,25.184 C27.8560418,17.2159602 35.0079702,13.232 40.96,13.232 C50.368047,13.232 56.6079846,20.8639237 59.68,36.128 C62.7520154,51.3920763 64.288,73.5678546 64.288,102.656 C64.288,131.744145 63.1360115,159.535868 60.832,186.032 C76.0000758,164.719893 94.383892,135.248188 115.984,97.616 C137.584108,59.9838118 151.935964,33.1040806 159.04,16.976 Z M200.336,64.784 L199.184,64.784 C195.343981,64.784 191.648018,66.4159837 188.096,69.68 C184.543982,72.9440163 182.000008,76.3039827 180.464,79.76 C175.471975,77.8399904 172.976,74.384025 172.976,69.392 C172.976,64.399975 175.279977,59.3600254 179.888,54.272 C184.496023,49.1839746 188.911979,46.64 193.136,46.64 C197.360021,46.64 200.527989,47.5999904 202.64,49.52 C204.752011,51.4400096 205.808,53.8879851 205.808,56.864 C205.808,59.8400149 203.984018,62.4799885 200.336,64.784 Z M522.536,10.928 L520.52,10.928 C508.807941,10.928 490.088129,46.0636486 464.36,116.336 C490.664132,85.4238454 508.615952,60.0800989 518.216,40.304 C523.592027,28.2079395 526.28,20.2880187 526.28,16.544 C526.28,12.7999813 525.032012,10.928 522.536,10.928 Z" id="Vinylr" stroke="#000000" stroke-width="6" fill="#000000" sketch:type="MSShapeGroup"></path>
    </g>
</svg>